# xmcd
#
# Track frame offsets:
#	150
#	17882
#	35549
#	54315
#	74302
#	92501
#	113372
#	130281
#	139619
#	160815
#	174881
#	196178
#
# Disc length: 2951 seconds
# Revision: 0
# Processed by: cddbd v1.5.2PL0 Copyright (c) Steve Scherf et al.
# Submitted via: dBpowerAMP V12.0
#
DISCID=910b850c
DTITLE=Michelle Malone - Acoustic Winter
DYEAR=2014
DGENRE=Acoustic
TTITLE0=Home
TTITLE1=Beyond the Montain
TTITLE2=Burning Star
TTITLE3=Where is the Love
TTITLE4=Mirror Ball
TTITLE5=Super Ball
TTITLE6=Made to Fly
TTITLE7=A Walk in the Woods
TTITLE8=Counting Stars
TTITLE9=Eleanor Rigby
TTITLE10=Missing
TTITLE11=Wild Horses
EXTD=
EXTT0=
EXTT1=
EXTT2=
EXTT3=
EXTT4=
EXTT5=
EXTT6=
EXTT7=
EXTT8=
EXTT9=
EXTT10=
EXTT11=
PLAYORDER=
